<!--?xml version="1.0" encoding="utf-8"?-->
<svg version="1.1" x="0px" y="0px" viewBox="40 15 422 422" style="enable-background:new 0 0 512 512;" xml:space="preserve" xmlns="http://www.w3.org/2000/svg"><style type="text/css">
.baseF{fill:#FFDFCA}
.baseB{fill:#232256}
.eyeF{fill:#FFFFFF}
.eyeB{fill:#232256}
.eyeT{fill:#BDC7D6}
.hairF{fill:#FFFFFF}
.hairB{fill:#232256}
.hairU{fill:#5E7AA5}
.noseF{fill:#FFDFCA}
.noseB{fill:#232256}
.noseU{fill:#5E7AA5}
.mayugeB{fill:#232256}
.mayugeT{fill:#BDC7D6}
.mouthF{fill:#FFFFFF}
.mouthB{fill:#232256}
.mouthT{fill:#BDC7D6}
.mouthU{fill:#5E7AA5}
.hatF{fill:#FFFFFF}
.hatB{fill:#232256}
.hatU{fill:#5E7AA5}
.hatT{fill:#BDC7D6}
.higeU{fill:#5E7AA5}
.higeB{fill:#232256}
.bodyF{fill:#FFFFFF}
.bodyB{fill:#232256}
.bodyU{fill:#5E7AA5}
.bodyT{fill:#BDC7D6}
.bodyS{fill:#8DA6C9}
.bodyH{fill:#FFDFCA}
.glassF{fill:#FFFFFF}
.glassB{fill:#232256}
.glassT{fill:#BDC7D6}
.glassU{fill:#5E7AA5}
.kirakiraF{fill:#FFFFFF}
.kirakiraB{fill:#232256}
.kirakiraU{fill:#5E7AA5}
.kirakiraT{fill:#BDC7D6}
.kirakiraH{fill:#FFDFCA}
.backF{fill:#FFFFFF}
.backB{fill:#232256}
.backU{fill:#5E7AA5}
.backS{fill:#8DA6C9}
.backA{fill:#FFE38B}
.backG{fill:#EEEEEF}
.backC{fill:#19DB9F}
.backD{fill:#DBBCA1}
</style>
<g class="icosvg">
<g>
	<rect x="-134" y="-134" class="backC" width="780" height="780"></rect>
</g>


<g>
	<path class="bodyT" d="M462.892,571.449c0,31.825,0,73.968,0,73.968H49.108c0,0,0-42.143,0-73.968   c-4.424-117.085,58.513-168.835,129.769-200.784c10.104-5.448,15.335-8.135,27.816-9.6c9.888-1.152,24.312-1.535,49.296-1.871   c25.008,0.336,39.431,0.72,49.32,1.871c12.48,1.465,17.712,4.152,27.816,9.6C404.404,402.524,467.405,454.701,462.892,571.449z"></path>
	<path class="bodyH" d="M321.076,399.513c1.432,31.12-23.422,57.521-54.673,57.432c0,0-20.808,0-20.808,0   c-49.866,0.067-72.547-61.568-38.904-95.88c14.333-2.281,84.296-2.279,98.616,0C315.051,370.953,321.076,384.513,321.076,399.513z"></path>
	<path class="bodyB" d="M468.169,571.449c-0.002-37.182-3.748-66.335-12.514-91.031c-17.805-59.276-92.495-104.32-120.326-114.559   c-9.772-5.348-16.365-8.295-27.447-9.769c-0.033-0.032-0.064-0.066-0.097-0.098c-7.859-1.188-95.71-1.188-103.571,0.001   c-0.033,0.032-0.062,0.066-0.094,0.097c-11.087,1.475-17.679,4.422-27.454,9.772C148.074,376.467,74.102,421.418,56.346,480.42   c-8.767,24.694-12.513,53.846-12.515,91.029c0,31.825,0,73.968,0,73.968c0.108,6.87,10.424,6.993,10.554,0h-0.001   c1.981-70.111-13.685-162.717,51.345-220.806c25.658-23.825,48.619-37.403,75.375-49.152c5.203-2.789,8.803-4.723,12.607-6.141   c-22.298,38.166,2.636,93.111,51.885,92.952c-0.001,0.001,20.807,0.001,20.807,0.001c34.182,0.086,61.444-28.693,59.998-62.758   c0.001-11.057-2.983-21.334-8.167-30.213c3.824,1.42,7.435,3.357,12.659,6.159c27.582,10.123,98.334,53.306,114.813,108.493   c8.204,23.081,11.91,51.001,11.908,87.497c0,31.825,0,73.968,0,73.968c0.056,6.817,10.445,7.025,10.554,0   C468.169,645.416,468.169,603.273,468.169,571.449z M266.404,451.619c-21.758,0.106-39.218,2.054-55.701-14.454   c-18.778-17.588-19.236-52.504-1.468-71.019c9.434-0.948,23.486-1.317,46.753-1.627c23.249,0.309,37.292,0.677,46.726,1.622   c8.075,8.812,13.034,20.46,13.038,33.371C317.165,427.691,294.723,451.708,266.404,451.619z"></path>
</g>

<g>
	<path class="baseF" d="M370.823,212.278h-1.083c-4.502-69.283-37.917-124.793-113.739-124.793
		c-75.823,0-109.238,55.51-113.74,124.793h-1.083c-14.838-8.774-36.38,8.077-32.988,28.423c7.12,42.713,9.94,53.304,22.629,59.714
		c6.476,3.274,12.413,3.39,12.413,3.39h1.277c4.228,26.863,10.38,52.753,21.211,67.835c16.544,23.046,61.366,38.076,90.281,38.076
		c28.914,0,73.736-15.03,90.281-38.076c10.83-15.082,16.982-40.972,21.211-67.835h1.277c0,0,5.937-0.115,12.412-3.39
		c12.691-6.41,15.509-17.001,22.629-59.714C407.203,220.355,385.661,203.504,370.823,212.278z"></path>
	<path class="baseB" d="M374.474,204.316c-3.994-43.045-19.733-85.533-58.115-108.137c-66.247-35.822-152.387-7.523-171.615,69.611
		c-1.194,3.97-5.515,22.021-7.546,38.468c-19.028-4.216-38.167,16.827-34.211,36.392c5.76,23.926,3.189,50.922,25.449,63.556
		c3.829,2.019,8.448,3.229,12.032,3.715c1.333,9.477,2.762,17.72,4.363,25.014c4.646,19.023,8.911,35.243,23.705,48.301
		c19.349,16.445,47.243,31.031,73.402,33.264c36.571,4.404,74.152-9.497,101.529-33.265c17.988-16.677,20.904-35.453,26.053-60.356
		c0.7-4.045,1.368-8.348,2.015-12.943c5.381-0.743,12.751-3.321,17.155-6.886c16.243-14.077,16.907-43.205,20.757-65.556
		C409.894,217.524,391.839,200.225,374.474,204.316z M393.888,265.163c-2.372,14.084-6.952,29.018-20.938,31.94
		c0.886-7.262,1.739-15.176,2.58-23.858c0.693-6.754-9.897-7.878-10.504-1.017l0,0c-4.905,40.098-4.773,61.057-19.796,91.022
		c-25.69,32.844-75.829,48.507-116.628,38.371c-22.22-6.925-48.458-19.423-61.828-38.371c-7.695-13.998-10.461-25.53-13.891-44.172
		c-2.162-12.484-4.056-27.757-5.905-46.85c-0.281-2.901-2.86-5.025-5.761-4.744c-2.901,0.281-5.024,2.86-4.743,5.761
		c0.84,8.669,1.691,16.562,2.575,23.816c-14.068-3.003-18.414-17.342-21.001-32.226c-0.818-9.186-7.698-26.161-3.223-37.587
		c3.397-8.052,12.799-15.191,21.414-12.335c-0.51,10.453,0.698,18.396,5.485,18.443c2.916-0.001,5.279-2.363,5.279-5.278h0
		c-2.179-98.241,61.423-164.004,159.024-125.49c45.561,23.119,58.867,76.261,58.975,125.49c-0.167,6.806,10.702,6.877,10.554,0
		c-0.003-4.287-0.114-8.606-0.325-12.935c11.55-4.274,23.955,8.635,23.661,20.35C397.841,246.224,395.214,257.789,393.888,265.163z"></path>
</g>


<g>
	<path class="hairB" d="M264.845,53.232c-22.506-19.474-62.859-17.863-67.871-29.152c-5.654-12.732-8.898,1.819-7.988,10.004   c0.909,8.186-9.169,10.72-17.678-0.727c-5.665-7.621,2.217-20.191-5.968-17.463c-20.009,11.824-14.551,39.108-22.107,35.47   c-6.001-2.89-4.588-8.646-2.825-14.538c0.422-1.411-1.293-2.513-2.385-1.525c-20.797,18.827-20.1,51.23,2.367,75.963   c-4.627,8.662-7.902,18.585-9.262,29.979v72.973c3.346,12.445,3.917,17.931,7.332,35.838c0.872,4.574,2.079,9.775,3.265,13.909   c1.412,4.925,10.687,7.479,10.991-5.834l3.225-42.095c0.048-0.545,4.356-7.372,4.654-7.839   c5.012-7.839,11.452-17.447,15.887-60.873c0.415-4.066,3.879-7.389,9.104-10.118c6.649,2.054,11.389,3.159,11.389,3.159   s-18.783,10.207-4.35,11.041c14.433,0.836,28.194-11.823,28.194-11.823s0.909,6.367-8.132,10.004   c2.783,9.095,19.955,10.004,35.416,0c5.694-3.684,13.111-12.682,19.253-24.001c21.585,1.446,66.59,6.305,68.166,21.737   c4.434,43.426,10.874,53.034,15.887,60.873c0.298,0.466,4.605,7.294,4.654,7.839l3.224,42.095   c0.304,13.312,9.579,10.759,10.991,5.834c1.185-4.134,2.393-9.335,3.265-13.909c3.415-17.907,3.987-23.393,7.332-35.838v-72.973   C372.497,71.052,291.937,56.239,264.845,53.232z"></path>
</g>

<g>
	<g>
		<path class="mouthF" d="M292.539,332.464c-5.1,7.223-12.437,15.103-36.536,15.103s-31.436-7.88-36.537-15.103
			c-5.1-7.223-13.855,4.596-7.724,15.103c6.131,10.509,20.742,18.766,44.261,18.766c19.782,0,38.128-8.257,44.259-18.766
			C306.394,337.06,297.639,325.24,292.539,332.464z"></path>
		<path class="mouthB" d="M304.1,330.661c-0.851-1.283-1.897-2.422-3.212-3.309c-1.305-0.879-2.945-1.507-4.754-1.506
			c-1.419-0.007-2.878,0.41-4.107,1.15c-1.236,0.739-2.251,1.756-3.08,2.932l-0.001,0c-2.433,3.422-4.932,6.438-9.592,8.902
			c-4.663,2.445-11.764,4.34-23.352,4.341c-11.589-0.001-18.689-1.896-23.353-4.341c-4.66-2.463-7.159-5.479-9.594-8.902
			c-0.83-1.175-1.846-2.193-3.083-2.932c-1.229-0.74-2.688-1.156-4.106-1.15c-1.809-0.001-3.449,0.627-4.754,1.506
			c-1.968,1.337-3.352,3.208-4.338,5.353c-0.974,2.151-1.528,4.622-1.53,7.274c-0.003,3.152,0.81,6.571,2.701,9.805
			c3.581,6.142,9.527,11.414,17.572,15.103c8.053,3.694,18.213,5.841,30.485,5.843c10.504-0.005,20.572-2.174,28.991-5.802
			c4.209-1.818,8.01-4.005,11.249-6.526c3.235-2.523,5.924-5.384,7.816-8.619c1.89-3.235,2.699-6.653,2.697-9.803
			C306.746,336.441,305.786,333.233,304.1,330.661z M296.466,345.352c-1.174,2.019-3.077,4.132-5.624,6.113
			c-3.814,2.977-9.046,5.636-15.063,7.504c-6.017,1.874-12.816,2.97-19.774,2.968c-11.248,0.001-20.152-1.98-26.817-5.041
			c-6.673-3.067-11.098-7.178-13.647-11.544c-1.088-1.867-1.499-3.7-1.502-5.373c-0.01-1.866,0.563-3.526,1.201-4.471
			c0.195-0.299,0.374-0.494,0.53-0.641c0.037,0.046,0.065,0.074,0.107,0.134c2.667,3.801,6.387,8.336,12.696,11.619
			c6.305,3.301,14.922,5.346,27.432,5.345c12.51,0.001,21.127-2.044,27.432-5.345c6.309-3.282,10.028-7.818,12.695-11.619
			l0.002-0.003l0.105-0.126c0.243,0.235,0.571,0.623,0.86,1.213c0.498,0.974,0.871,2.364,0.868,3.896
			C297.961,341.654,297.55,343.488,296.466,345.352z"></path>
	</g>
</g>


<g>
	<path class="noseF" d="M266.701,314.612l-7.163,5.684c-2.093,1.659-5.034,1.727-7.2,0.164l-5.189-3.741
		c-1.795-1.296-2.726-3.478-2.419-5.67l3.495-24.898c0,0,3.422-4.104,7.463-3.954c6.52,0.241,10.31,18.211,11.967,28.013
		C268.28,313.909,266.701,314.612,266.701,314.612z"></path>
	<path class="noseB" d="M245.135,285.716l-3.495,24.898l-0.09,1.261c0,2.895,1.385,5.641,3.766,7.369l5.197,3.745
		c1.589,1.148,3.463,1.713,5.313,1.713c2.002,0,3.994-0.666,5.634-1.95l0.015-0.014l7.163-5.684c1.348-1.071,1.574-3.033,0.504-4.38
		c-1.071-1.35-3.033-1.575-4.38-0.504l-7.164,5.681l0.015-0.014c-0.532,0.417-1.162,0.623-1.787,0.623
		c-0.595,0-1.168-0.176-1.664-0.532l-5.19-3.741c-0.751-0.546-1.182-1.413-1.182-2.313l0.028-0.382l3.496-24.907
		c0.239-1.706-0.95-3.284-2.655-3.523c-1.706-0.241-3.284,0.949-3.523,2.655L245.135,285.716z"></path>
</g>


<g>
	<g>
		<path class="eyeB" d="M191.818,285.713c1.385-8.6,11.525-21.045,23.216-18.539c8.667,1.857,12.494,8.876,13.894,12.383
			c0.422,1.057-0.168,2.237-1.271,2.518l-2.983,0.761c-0.824,0.21-1.682-0.151-2.09-0.897c-1.515-2.769-5.95-8.101-12.626-6.995
			c-5.931,0.983-9.27,4.937-12.11,11.117C196.394,289.23,191.484,287.788,191.818,285.713z"></path>
		<path class="eyeB" d="M320.183,285.713c-1.385-8.6-11.525-21.045-23.216-18.539c-8.667,1.857-12.494,8.876-13.894,12.383
			c-0.422,1.057,0.168,2.237,1.271,2.518l2.983,0.761c0.824,0.21,1.682-0.151,2.09-0.897c1.515-2.769,5.95-8.101,12.626-6.995
			c5.931,0.983,9.27,4.937,12.11,11.117C315.607,289.23,320.517,287.788,320.183,285.713z"></path>
	</g>
</g>


<g>
	<g>
		<path class="mayugeB" d="M187.003,250.732c11.158-6.921,30.144-9.299,47.41-0.884c1.276,0.622,2.528-0.922,1.648-2.035
			c-5.164-6.528-12.245-13.342-31.361-11.455C187.508,238.055,183.208,252.85,187.003,250.732z"></path>
		<path class="mayugeB" d="M324.998,250.732c-11.158-6.921-30.144-9.299-47.41-0.884c-1.276,0.622-2.528-0.922-1.648-2.035
			c5.164-6.528,12.245-13.342,31.361-11.455C324.493,238.055,328.792,252.85,324.998,250.732z"></path>
	</g>
</g>


<g>
	<path class="glassB" d="M373.625,238.968c-3.067-0.98-20.292-4.545-28.846-7.041c-8.245-2.044-17.985-3.527-24.721-3.766
		c-2.086-0.073-4.132-0.108-6.083-0.108c-19.609,0-31.481,3.738-38.598,9.642c-1.344,1.116-3.086,1.589-4.805,1.282
		c-6.702-1.195-14.572-1.113-14.572-1.113s-7.871-0.082-14.573,1.113c-1.719,0.307-3.461-0.166-4.805-1.282
		c-7.116-5.904-18.989-9.642-38.598-9.642c-1.951,0-3.997,0.035-6.083,0.108c-6.736,0.239-16.474,1.723-24.721,3.766
		c-8.554,2.496-25.78,6.061-28.846,7.041c-1.608,0.513-2.559,16.966,0,18.246c1.47,0.734,4.195,2.466,6.036,5.248
		c1.37,2.07,2.495,3.326,2.807,6.935c0,0.009,0.007,0.009,0.011,0.016c0.316,10.627,2.999,23.726,12.278,33.914
		c6.646,7.298,18.512,14.093,34.822,14.093c0.001,0,0.001,0,0.002,0c6.422,0,13.219-1.172,20.777-3.588
		c23.394-7.474,31.721-30.016,31.713-48.619c-0.001-3.93-0.253-7.8-1.009-11.47c-0.495-2.405,0.881-4.828,3.18-5.684
		c1.678-0.626,5.263-1.055,7.008-1.055c1.744,0,5.328,0.429,7.007,1.055c2.299,0.855,3.676,3.279,3.18,5.684
		c-0.756,3.67-1.007,7.54-1.009,11.47c-0.007,18.602,8.319,41.145,31.713,48.619c7.559,2.416,14.355,3.588,20.777,3.588
		c0.001,0,0.002,0,0.002,0c16.31,0,28.177-6.795,34.822-14.093c9.279-10.188,11.961-23.288,12.278-33.914
		c0.004-0.007,0.009-0.007,0.011-0.016c0.312-3.609,1.437-4.866,2.807-6.935c1.842-2.782,4.568-4.514,6.036-5.248
		C376.186,255.934,375.233,239.481,373.625,238.968z M212.466,306.559c-22.804,6.973-35.579,0.872-46.223-8.733
		c-10.643-9.607-11.859-25.908-10.338-34.931c1.52-9.026,11.802-22.46,36.492-23.58c43.161-1.957,46.221,13.68,46.228,28.238
		C238.629,278.322,234.361,299.863,212.466,306.559z M345.757,297.826c-10.643,9.605-23.419,15.705-46.222,8.733
		c-21.895-6.696-26.162-28.237-26.157-39.007c0.007-14.557,3.066-30.195,46.228-28.238c24.689,1.12,34.971,14.555,36.492,23.58
		C357.618,271.918,356.401,288.219,345.757,297.826z"></path>
</g>

</g></svg>
